<svg width="1em" height="1em" viewBox="0 0 14 14" fill="none" xmlns="http://www.w3.org/2000/svg">
<path d="M6.2651 7.73498H2.8351C2.62685 7.73498 2.45229 7.66495 2.31141 7.52489C2.17054 7.38483 2.1001 7.21129 2.1001 7.00426C2.1001 6.79724 2.17054 6.62227 2.31141 6.47935C2.45229 6.33643 2.62685 6.26498 2.8351 6.26498H6.2651V2.83498C6.2651 2.62673 6.33513 2.45216 6.47518 2.31129C6.61524 2.17041 6.78878 2.09998 6.99581 2.09998C7.20284 2.09998 7.37781 2.17041 7.52072 2.31129C7.66364 2.45216 7.7351 2.62673 7.7351 2.83498V6.26498H11.1651C11.3733 6.26498 11.5479 6.335 11.6888 6.47506C11.8297 6.61512 11.9001 6.78866 11.9001 6.99569C11.9001 7.20271 11.8297 7.37768 11.6888 7.5206C11.5479 7.66352 11.3733 7.73498 11.1651 7.73498H7.7351V11.165C7.7351 11.3732 7.66507 11.5478 7.52501 11.6887C7.38495 11.8295 7.21141 11.9 7.00438 11.9C6.79736 11.9 6.62239 11.8295 6.47947 11.6887C6.33656 11.5478 6.2651 11.3732 6.2651 11.165V7.73498Z" fill="#F0F0F0"/>
</svg>
