<svg width="1em" height="1em" viewBox="0 0 14 15" fill="none" xmlns="http://www.w3.org/2000/svg">
<path d="M3.84693 11.3127C3.5573 11.3127 3.3104 11.2096 3.10624 11.0034C2.90207 10.7972 2.79999 10.5493 2.79999 10.2597C2.79999 9.97003 2.90309 9.72314 3.1093 9.51897C3.31551 9.3148 3.56343 9.21272 3.85305 9.21272C4.14268 9.21272 4.38957 9.31582 4.59374 9.52203C4.7979 9.72824 4.89999 9.97616 4.89999 10.2658C4.89999 10.5554 4.79688 10.8023 4.59068 11.0065C4.38447 11.2106 4.13655 11.3127 3.84693 11.3127ZM6.99693 11.3127C6.7073 11.3127 6.4604 11.2096 6.25624 11.0034C6.05207 10.7972 5.94999 10.5493 5.94999 10.2597C5.94999 9.97003 6.05309 9.72314 6.2593 9.51897C6.46551 9.3148 6.71342 9.21272 7.00305 9.21272C7.29268 9.21272 7.53957 9.31582 7.74374 9.52203C7.9479 9.72824 8.04999 9.97616 8.04999 10.2658C8.04999 10.5554 7.94688 10.8023 7.74067 11.0065C7.53447 11.2106 7.28655 11.3127 6.99693 11.3127ZM10.1469 11.3127C9.8573 11.3127 9.6104 11.2096 9.40624 11.0034C9.20207 10.7972 9.09999 10.5493 9.09999 10.2597C9.09999 9.97003 9.20309 9.72314 9.4093 9.51897C9.61551 9.3148 9.86343 9.21272 10.153 9.21272C10.4427 9.21272 10.6896 9.31582 10.8937 9.52203C11.0979 9.72824 11.2 9.97616 11.2 10.2658C11.2 10.5554 11.0969 10.8023 10.8907 11.0065C10.6845 11.2106 10.4365 11.3127 10.1469 11.3127ZM3.84693 8.16272C3.5573 8.16272 3.3104 8.05962 3.10624 7.85341C2.90207 7.6472 2.79999 7.39928 2.79999 7.10966C2.79999 6.82003 2.90309 6.57314 3.1093 6.36897C3.31551 6.1648 3.56343 6.06272 3.85305 6.06272C4.14268 6.06272 4.38957 6.16582 4.59374 6.37203C4.7979 6.57824 4.89999 6.82616 4.89999 7.11578C4.89999 7.40541 4.79688 7.6523 4.59068 7.85647C4.38447 8.06064 4.13655 8.16272 3.84693 8.16272ZM6.99693 8.16272C6.7073 8.16272 6.4604 8.05962 6.25624 7.85341C6.05207 7.6472 5.94999 7.39928 5.94999 7.10966C5.94999 6.82003 6.05309 6.57314 6.2593 6.36897C6.46551 6.1648 6.71342 6.06272 7.00305 6.06272C7.29268 6.06272 7.53957 6.16582 7.74374 6.37203C7.9479 6.57824 8.04999 6.82616 8.04999 7.11578C8.04999 7.40541 7.94688 7.6523 7.74067 7.85647C7.53447 8.06064 7.28655 8.16272 6.99693 8.16272ZM10.1469 8.16272C9.8573 8.16272 9.6104 8.05962 9.40624 7.85341C9.20207 7.6472 9.09999 7.39928 9.09999 7.10966C9.09999 6.82003 9.20309 6.57314 9.4093 6.36897C9.61551 6.1648 9.86343 6.06272 10.153 6.06272C10.4427 6.06272 10.6896 6.16582 10.8937 6.37203C11.0979 6.57824 11.2 6.82616 11.2 7.11578C11.2 7.40541 11.0969 7.6523 10.8907 7.85647C10.6845 8.06064 10.4365 8.16272 10.1469 8.16272ZM3.84693 5.01272C3.5573 5.01272 3.3104 4.90962 3.10624 4.70341C2.90207 4.4972 2.79999 4.24928 2.79999 3.95966C2.79999 3.67003 2.90309 3.42314 3.1093 3.21897C3.31551 3.0148 3.56343 2.91272 3.85305 2.91272C4.14268 2.91272 4.38957 3.01582 4.59374 3.22203C4.7979 3.42824 4.89999 3.67616 4.89999 3.96578C4.89999 4.25541 4.79688 4.5023 4.59068 4.70647C4.38447 4.91064 4.13655 5.01272 3.84693 5.01272ZM6.99693 5.01272C6.7073 5.01272 6.4604 4.90962 6.25624 4.70341C6.05207 4.4972 5.94999 4.24928 5.94999 3.95966C5.94999 3.67003 6.05309 3.42314 6.2593 3.21897C6.46551 3.0148 6.71342 2.91272 7.00305 2.91272C7.29268 2.91272 7.53957 3.01582 7.74374 3.22203C7.9479 3.42824 8.04999 3.67616 8.04999 3.96578C8.04999 4.25541 7.94688 4.5023 7.74067 4.70647C7.53447 4.91064 7.28655 5.01272 6.99693 5.01272ZM10.1469 5.01272C9.8573 5.01272 9.6104 4.90962 9.40624 4.70341C9.20207 4.4972 9.09999 4.24928 9.09999 3.95966C9.09999 3.67003 9.20309 3.42314 9.4093 3.21897C9.61551 3.0148 9.86343 2.91272 10.153 2.91272C10.4427 2.91272 10.6896 3.01582 10.8937 3.22203C11.0979 3.42824 11.2 3.67616 11.2 3.96578C11.2 4.25541 11.0969 4.5023 10.8907 4.70647C10.6845 4.91064 10.4365 5.01272 10.1469 5.01272Z" fill="#868795"/>
</svg>
