<svg width="16" height="16" viewBox="0 0 16 16" fill="none" xmlns="http://www.w3.org/2000/svg">
<path d="M6.89925 8L9.63258 10.7333C9.75481 10.8556 9.81592 10.9972 9.81592 11.1583C9.81592 11.3194 9.75481 11.4611 9.63258 11.5833C9.51036 11.7056 9.3687 11.7667 9.20758 11.7667C9.04647 11.7667 8.90292 11.7037 8.77692 11.5777L5.61592 8.41666C5.56036 8.35666 5.5187 8.29166 5.49092 8.22166C5.46314 8.15166 5.44925 8.07666 5.44925 7.99666C5.44925 7.91666 5.46314 7.84166 5.49092 7.77166C5.5187 7.70166 5.56036 7.63888 5.61592 7.58333L8.77692 4.42233C8.90292 4.29633 9.0437 4.23611 9.19925 4.24166C9.35481 4.24722 9.4937 4.31111 9.61592 4.43333C9.73814 4.55555 9.79925 4.69722 9.79925 4.85833C9.79925 5.01944 9.73814 5.16111 9.61592 5.28333L6.89925 8Z" fill="#A9ACC4"/>
</svg>
