<svg width="1em" height="1em" viewBox="0 0 14 14" fill="none" xmlns="http://www.w3.org/2000/svg">
<path d="M7.00006 7.82308L9.39173 5.43141C9.49868 5.32447 9.62263 5.271 9.76361 5.271C9.90458 5.271 10.0285 5.32447 10.1355 5.43141C10.2424 5.53836 10.2959 5.66232 10.2959 5.80329C10.2959 5.94426 10.2408 6.06987 10.1305 6.18012L7.36465 8.946C7.31215 8.99461 7.25527 9.03107 7.19402 9.05537C7.13277 9.07968 7.06715 9.09183 6.99715 9.09183C6.92715 9.09183 6.86152 9.07968 6.80027 9.05537C6.73902 9.03107 6.68409 8.99461 6.63548 8.946L3.86961 6.18012C3.75936 6.06987 3.70666 5.94669 3.71152 5.81058C3.71638 5.67447 3.77229 5.55294 3.87923 5.446C3.98618 5.33905 4.11013 5.28558 4.25111 5.28558C4.39208 5.28558 4.51604 5.33905 4.62298 5.446L7.00006 7.82308Z" fill="#868795"/>
</svg>
