<svg width="1em" height="1em" viewBox="0 0 20 20" fill="none" xmlns="http://www.w3.org/2000/svg">
<path d="M8.51508 9.99996L5.05025 6.53514C4.83989 6.32477 4.73429 6.0777 4.73347 5.79391C4.73264 5.51013 4.8368 5.26367 5.04592 5.05454C5.25505 4.84542 5.50295 4.73982 5.78962 4.73776C6.07629 4.7357 6.32481 4.83985 6.53518 5.05021L10 8.51503L13.4648 5.05021C13.6752 4.83985 13.9223 4.73425 14.206 4.73343C14.4898 4.7326 14.7363 4.83675 14.9454 5.04588C15.1545 5.25501 15.2601 5.50291 15.2622 5.78958C15.2643 6.07625 15.1601 6.32477 14.9497 6.53514L11.4849 9.99996L14.9497 13.4648C15.1601 13.6751 15.2657 13.9222 15.2665 14.206C15.2674 14.4898 15.1632 14.7362 14.9541 14.9454C14.745 15.1545 14.4971 15.2601 14.2104 15.2622C13.9237 15.2642 13.6752 15.1601 13.4648 14.9497L10 11.4849L6.53518 14.9497C6.32481 15.1601 6.07774 15.2657 5.79395 15.2665C5.51017 15.2673 5.26371 15.1632 5.05458 14.954C4.84546 14.7449 4.73986 14.497 4.7378 14.2103C4.73574 13.9237 4.83989 13.6751 5.05025 13.4648L8.51508 9.99996Z" fill="#E23737"/>
</svg>
