<svg width="16" height="16" viewBox="0 0 16 16" fill="none" xmlns="http://www.w3.org/2000/svg">
<path d="M8.0001 11.2C7.21599 11.2 6.53126 10.9536 5.94593 10.4607C5.3606 9.96772 4.99271 9.34749 4.84226 8.60005H2.2001C2.0301 8.60005 1.8876 8.54288 1.7726 8.42855C1.6576 8.31422 1.6001 8.17255 1.6001 8.00355C1.6001 7.83455 1.6576 7.69172 1.7726 7.57505C1.8876 7.45838 2.0301 7.40005 2.2001 7.40005H4.84226C4.99271 6.65249 5.3606 6.03227 5.94593 5.53938C6.53126 5.04649 7.21599 4.80005 8.0001 4.80005C8.78421 4.80005 9.46893 5.04649 10.0543 5.53938C10.6396 6.03227 11.0075 6.65249 11.1579 7.40005H13.8001C13.9701 7.40005 14.1126 7.45722 14.2276 7.57155C14.3426 7.68588 14.4001 7.82755 14.4001 7.99655C14.4001 8.16555 14.3426 8.30838 14.2276 8.42505C14.1126 8.54172 13.9701 8.60005 13.8001 8.60005H11.1579C11.0075 9.34749 10.6396 9.96772 10.0543 10.4607C9.46893 10.9536 8.78421 11.2 8.0001 11.2ZM8.0001 10C8.55565 10 9.02788 9.8056 9.41676 9.41672C9.80565 9.02783 10.0001 8.5556 10.0001 8.00005C10.0001 7.44449 9.80565 6.97227 9.41676 6.58338C9.02788 6.19449 8.55565 6.00005 8.0001 6.00005C7.44454 6.00005 6.97232 6.19449 6.58343 6.58338C6.19454 6.97227 6.0001 7.44449 6.0001 8.00005C6.0001 8.5556 6.19454 9.02783 6.58343 9.41672C6.97232 9.8056 7.44454 10 8.0001 10Z" fill="#868795"/>
</svg>
