<svg width="1em" height="1em" viewBox="0 0 14 14" fill="none" xmlns="http://www.w3.org/2000/svg">
<path d="M3.79167 12.25C3.22778 12.25 2.74653 12.0507 2.34792 11.6521C1.94931 11.2535 1.75 10.7722 1.75 10.2083C1.75 9.64444 1.94931 9.16319 2.34792 8.76458C2.74653 8.36597 3.22778 8.16667 3.79167 8.16667H4.66667V5.83333H3.79167C3.22778 5.83333 2.74653 5.63403 2.34792 5.23542C1.94931 4.83681 1.75 4.35556 1.75 3.79167C1.75 3.22778 1.94931 2.74653 2.34792 2.34792C2.74653 1.94931 3.22778 1.75 3.79167 1.75C4.35556 1.75 4.83681 1.94931 5.23542 2.34792C5.63403 2.74653 5.83333 3.22778 5.83333 3.79167V4.66667H8.16667V3.79167C8.16667 3.22778 8.36597 2.74653 8.76458 2.34792C9.16319 1.94931 9.64444 1.75 10.2083 1.75C10.7722 1.75 11.2535 1.94931 11.6521 2.34792C12.0507 2.74653 12.25 3.22778 12.25 3.79167C12.25 4.35556 12.0507 4.83681 11.6521 5.23542C11.2535 5.63403 10.7722 5.83333 10.2083 5.83333H9.33333V8.16667H10.2083C10.7722 8.16667 11.2535 8.36597 11.6521 8.76458C12.0507 9.16319 12.25 9.64444 12.25 10.2083C12.25 10.7722 12.0507 11.2535 11.6521 11.6521C11.2535 12.0507 10.7722 12.25 10.2083 12.25C9.64444 12.25 9.16319 12.0507 8.76458 11.6521C8.36597 11.2535 8.16667 10.7722 8.16667 10.2083V9.33333H5.83333V10.2083C5.83333 10.7722 5.63403 11.2535 5.23542 11.6521C4.83681 12.0507 4.35556 12.25 3.79167 12.25ZM3.79167 11.0833C4.03472 11.0833 4.24132 10.9983 4.41146 10.8281C4.5816 10.658 4.66667 10.4514 4.66667 10.2083V9.33333H3.79167C3.54861 9.33333 3.34201 9.4184 3.17188 9.58854C3.00174 9.75868 2.91667 9.96528 2.91667 10.2083C2.91667 10.4514 3.00174 10.658 3.17188 10.8281C3.34201 10.9983 3.54861 11.0833 3.79167 11.0833ZM10.2083 11.0833C10.4514 11.0833 10.658 10.9983 10.8281 10.8281C10.9983 10.658 11.0833 10.4514 11.0833 10.2083C11.0833 9.96528 10.9983 9.75868 10.8281 9.58854C10.658 9.4184 10.4514 9.33333 10.2083 9.33333H9.33333V10.2083C9.33333 10.4514 9.4184 10.658 9.58854 10.8281C9.75868 10.9983 9.96528 11.0833 10.2083 11.0833ZM5.83333 8.16667H8.16667V5.83333H5.83333V8.16667ZM3.79167 4.66667H4.66667V3.79167C4.66667 3.54861 4.5816 3.34201 4.41146 3.17188C4.24132 3.00174 4.03472 2.91667 3.79167 2.91667C3.54861 2.91667 3.34201 3.00174 3.17188 3.17188C3.00174 3.34201 2.91667 3.54861 2.91667 3.79167C2.91667 4.03472 3.00174 4.24132 3.17188 4.41146C3.34201 4.5816 3.54861 4.66667 3.79167 4.66667ZM9.33333 4.66667H10.2083C10.4514 4.66667 10.658 4.5816 10.8281 4.41146C10.9983 4.24132 11.0833 4.03472 11.0833 3.79167C11.0833 3.54861 10.9983 3.34201 10.8281 3.17188C10.658 3.00174 10.4514 2.91667 10.2083 2.91667C9.96528 2.91667 9.75868 3.00174 9.58854 3.17188C9.4184 3.34201 9.33333 3.54861 9.33333 3.79167V4.66667Z" fill="#5A5B69"/>
</svg>
