<svg width="16" height="16" viewBox="0 0 16 16" fill="none" xmlns="http://www.w3.org/2000/svg">
<path d="M9.60373 12C9.15673 12 8.77768 11.8457 8.46657 11.5371C8.15546 11.2285 7.9999 10.8507 7.9999 10.4038C7.9999 9.95681 8.15418 9.57775 8.46274 9.26664C8.7714 8.95553 9.14918 8.79998 9.59607 8.79998C10.0431 8.79998 10.4221 8.95425 10.7332 9.26281C11.0443 9.57148 11.1999 9.94925 11.1999 10.3961C11.1999 10.8431 11.0456 11.2222 10.7371 11.5333C10.4284 11.8444 10.0506 12 9.60373 12ZM3.5999 14.4C3.2699 14.4 2.9874 14.2805 2.7524 14.0416C2.5174 13.8028 2.3999 13.5222 2.3999 13.2V4.39998C2.3999 4.07775 2.5174 3.7972 2.7524 3.55831C2.9874 3.31942 3.2699 3.19998 3.5999 3.19998H4.7999V2.19998C4.7999 2.02998 4.85707 1.88748 4.9714 1.77248C5.08574 1.65748 5.2274 1.59998 5.3964 1.59998C5.5654 1.59998 5.70824 1.65748 5.8249 1.77248C5.94157 1.88748 5.9999 2.02998 5.9999 2.19998V3.19998H9.9999V2.19998C9.9999 2.02998 10.0571 1.88748 10.1714 1.77248C10.2857 1.65748 10.4274 1.59998 10.5964 1.59998C10.7654 1.59998 10.9082 1.65748 11.0249 1.77248C11.1416 1.88748 11.1999 2.02998 11.1999 2.19998V3.19998H12.3999C12.7299 3.19998 13.0124 3.31942 13.2474 3.55831C13.4824 3.7972 13.5999 4.07775 13.5999 4.39998V13.2C13.5999 13.5222 13.4824 13.8028 13.2474 14.0416C13.0124 14.2805 12.7299 14.4 12.3999 14.4H3.5999ZM3.5999 13.2H12.3999V7.19998H3.5999V13.2Z" fill="#868795"/>
</svg>
