<svg width="1em" height="1em" viewBox="0 0 12 12" fill="none" xmlns="http://www.w3.org/2000/svg">
<path d="M3.8999 10.2C3.6524 10.2 3.44053 10.1119 3.26428 9.93567C3.08803 9.75942 2.9999 9.54755 2.9999 9.30005V3.30005H2.8499C2.7224 3.30005 2.61553 3.25717 2.52928 3.17142C2.44303 3.08567 2.3999 2.97942 2.3999 2.85267C2.3999 2.72592 2.44303 2.6188 2.52928 2.5313C2.61553 2.4438 2.7224 2.40005 2.8499 2.40005H4.7999V2.25005C4.7999 2.12255 4.84303 2.01567 4.92928 1.92942C5.01553 1.84317 5.1224 1.80005 5.2499 1.80005H6.7499C6.8774 1.80005 6.98428 1.84317 7.07053 1.92942C7.15678 2.01567 7.1999 2.12255 7.1999 2.25005V2.40005H9.1499C9.2774 2.40005 9.38428 2.44292 9.47053 2.52867C9.55678 2.61442 9.5999 2.72067 9.5999 2.84742C9.5999 2.97417 9.55678 3.0813 9.47053 3.1688C9.38428 3.2563 9.2774 3.30005 9.1499 3.30005H8.9999V9.29467C8.9999 9.54826 8.91178 9.76255 8.73553 9.93755C8.55928 10.1125 8.3474 10.2 8.0999 10.2H3.8999ZM5.24728 8.40005C5.37403 8.40005 5.48115 8.35692 5.56865 8.27067C5.65615 8.18442 5.6999 8.07755 5.6999 7.95005V4.65005C5.6999 4.52255 5.65703 4.41567 5.57128 4.32942C5.48553 4.24317 5.37928 4.20005 5.25253 4.20005C5.12578 4.20005 5.01865 4.24317 4.93115 4.32942C4.84365 4.41567 4.7999 4.52255 4.7999 4.65005V7.95005C4.7999 8.07755 4.84278 8.18442 4.92853 8.27067C5.01428 8.35692 5.12053 8.40005 5.24728 8.40005ZM6.74728 8.40005C6.87403 8.40005 6.98115 8.35692 7.06865 8.27067C7.15615 8.18442 7.1999 8.07755 7.1999 7.95005V4.65005C7.1999 4.52255 7.15703 4.41567 7.07128 4.32942C6.98553 4.24317 6.87928 4.20005 6.75253 4.20005C6.62578 4.20005 6.51865 4.24317 6.43115 4.32942C6.34365 4.41567 6.2999 4.52255 6.2999 4.65005V7.95005C6.2999 8.07755 6.34278 8.18442 6.42853 8.27067C6.51428 8.35692 6.62053 8.40005 6.74728 8.40005Z" fill="#F0F0F0"/>
</svg>
