<svg width="14" height="14" viewBox="0 0 14 14" fill="none" xmlns="http://www.w3.org/2000/svg">
<path d="M6.4751 12.4688L2.6251 10.2375C2.45885 10.1415 2.32979 10.0148 2.23791 9.85748C2.14604 9.70027 2.1001 9.52557 2.1001 9.33336V4.66669C2.1001 4.47448 2.14604 4.29977 2.23791 4.14257C2.32979 3.98526 2.45885 3.85858 2.6251 3.76252L6.46051 1.54586C6.62579 1.44864 6.80565 1.40002 7.0001 1.40002C7.19454 1.40002 7.3744 1.44864 7.53968 1.54586L11.3751 3.76252C11.5413 3.85858 11.6704 3.98526 11.7623 4.14257C11.8542 4.29977 11.9001 4.47448 11.9001 4.66669V9.33336C11.9001 9.52557 11.8542 9.70027 11.7623 9.85748C11.6704 10.0148 11.5413 10.1415 11.3751 10.2375L7.5251 12.4688C7.35856 12.566 7.18322 12.6146 6.99908 12.6146C6.81503 12.6146 6.64038 12.566 6.4751 12.4688ZM6.4751 7.30627V11.2438L7.0001 11.55L7.5251 11.2438V7.30627L10.8501 5.38127V4.66669L10.4126 4.41877L7.0001 6.38752L3.57301 4.41877L3.1501 4.66669V5.38127L6.4751 7.30627Z" fill="#A9ACC4"/>
</svg>
