<svg width="12" height="12" viewBox="0 0 12 12" fill="none" xmlns="http://www.w3.org/2000/svg">
<path d="M2.2523 10.2C2.1258 10.2 2.0188 10.1571 1.9313 10.0713C1.8438 9.98555 1.80005 9.87922 1.80005 9.7523V8.66667C1.80005 8.54726 1.82088 8.43338 1.86255 8.32505C1.90422 8.21672 1.97088 8.11672 2.06255 8.02505L8.02505 2.06255C8.11672 1.97088 8.21605 1.90422 8.32305 1.86255C8.42997 1.82088 8.54247 1.80005 8.66055 1.80005C8.77855 1.80005 8.89172 1.82088 9.00005 1.86255C9.10838 1.90422 9.20838 1.97088 9.30005 2.06255L9.93755 2.70005C10.0292 2.79172 10.0959 2.89172 10.1375 3.00005C10.1792 3.10838 10.2 3.21897 10.2 3.3318C10.2 3.45222 10.1791 3.56697 10.1373 3.67605C10.0955 3.78513 10.0289 3.8848 9.93755 3.97505L3.97505 9.93755C3.88338 10.0292 3.78359 10.0959 3.67567 10.1375C3.56776 10.1792 3.45426 10.2 3.33517 10.2H2.2523ZM8.66255 3.97505L9.30005 3.33755L8.66255 2.70005L8.02505 3.33755L8.66255 3.97505Z" fill="#5A5B69"/>
</svg>
