<svg width="14" height="14" viewBox="0 0 14 14" fill="none" xmlns="http://www.w3.org/2000/svg">
<path d="M3.84999 7.69998V11.375C3.84999 11.5237 3.79997 11.6484 3.69993 11.749C3.59988 11.8497 3.47593 11.9 3.32805 11.9C3.18018 11.9 3.0552 11.8497 2.95311 11.749C2.85103 11.6484 2.79999 11.5237 2.79999 11.375V2.62498C2.79999 2.47623 2.8503 2.35154 2.95093 2.25091C3.05155 2.15029 3.17624 2.09998 3.32499 2.09998H7.28786C7.41678 2.09998 7.52829 2.13687 7.6224 2.21066C7.71652 2.28455 7.7764 2.37891 7.80207 2.49373L8.04999 3.49998H10.675C10.8237 3.49998 10.9484 3.55029 11.0491 3.65091C11.1497 3.75154 11.2 3.87623 11.2 4.02498V8.57498C11.2 8.72373 11.1497 8.84841 11.0491 8.94904C10.9484 9.04966 10.8237 9.09998 10.675 9.09998H8.10832C7.98621 9.09998 7.87713 9.06308 7.78107 8.98929C7.68511 8.9154 7.62406 8.82104 7.5979 8.70623L7.34999 7.69998H3.84999Z" fill="#1DDE40"/>
</svg>
