<svg width="16" height="16" viewBox="0 0 16 16" fill="none" xmlns="http://www.w3.org/2000/svg">
<path fill-rule="evenodd" clip-rule="evenodd" d="M7.84133 2.40002C4.80536 2.40002 2.35107 4.96668 2.35107 8.14198C2.35107 10.6802 3.92362 12.8287 6.10516 13.5891C6.3779 13.6463 6.47781 13.4656 6.47781 13.3136C6.47781 13.1804 6.46882 12.7242 6.46882 12.2488C4.94156 12.591 4.62353 11.5643 4.62353 11.5643C4.37809 10.8988 4.01442 10.7278 4.01442 10.7278C3.51455 10.376 4.05083 10.376 4.05083 10.376C4.60532 10.4141 4.89628 10.9654 4.89628 10.9654C5.38704 11.84 6.17787 11.5929 6.49602 11.4407C6.54142 11.07 6.68695 10.8133 6.84148 10.6707C5.62338 10.5376 4.34179 10.0433 4.34179 7.83772C4.34179 7.21029 4.55981 6.69696 4.90527 6.29773C4.85076 6.15516 4.65983 5.56564 4.95988 4.77663C4.95988 4.77663 5.42345 4.6245 6.46871 5.36603C6.91622 5.24034 7.37773 5.1764 7.84133 5.17586C8.3049 5.17586 8.77746 5.24248 9.21384 5.36603C10.2592 4.6245 10.7228 4.77663 10.7228 4.77663C11.0228 5.56564 10.8318 6.15516 10.7773 6.29773C11.1318 6.69696 11.3409 7.21029 11.3409 7.83772C11.3409 10.0433 10.0593 10.528 8.83208 10.6707C9.03211 10.8513 9.20473 11.1935 9.20473 11.7354C9.20473 12.5054 9.19574 13.1234 9.19574 13.3134C9.19574 13.4656 9.29576 13.6463 9.5684 13.5892C11.7499 12.8286 13.3225 10.6802 13.3225 8.14198C13.3315 4.96668 10.8682 2.40002 7.84133 2.40002Z" fill="#868795"/>
</svg>
