<svg width="14" height="14" viewBox="0 0 14 14" fill="none" xmlns="http://www.w3.org/2000/svg">
<path d="M3.32498 11.9C2.9847 11.9 2.69546 11.7809 2.45727 11.5427C2.21907 11.3045 2.09998 11.0153 2.09998 10.675V9.29685C2.09998 9.16669 2.144 9.05759 2.23205 8.96954C2.32009 8.8815 2.42919 8.83747 2.55935 8.83747H3.32498V3.01873C3.32498 2.76607 3.41494 2.54978 3.59486 2.36986C3.77478 2.18994 3.99107 2.09998 4.24373 2.09998H9.75623C10.0089 2.09998 10.2252 2.18994 10.4051 2.36986C10.585 2.54978 10.675 2.76607 10.675 3.01873V6.5406C10.675 6.67076 10.6312 6.77986 10.5437 6.8679C10.4561 6.95595 10.3477 6.99998 10.2183 6.99998C10.0889 6.99998 9.97953 6.95595 9.89021 6.8679C9.80089 6.77986 9.75623 6.67076 9.75623 6.5406V3.01873H4.24373V8.83747H6.82133C7.0255 8.83747 7.16799 8.93105 7.2488 9.1182C7.32962 9.30536 7.29772 9.47124 7.1531 9.61586L6.96169 9.80727C6.86812 9.90084 6.80006 10.0023 6.75753 10.1116C6.71499 10.2208 6.69373 10.3358 6.69373 10.4564V11.4398C6.69373 11.5679 6.6497 11.6767 6.56166 11.766C6.47361 11.8553 6.36451 11.9 6.23435 11.9H3.32498ZM7.61248 11.4406V10.644C7.61248 10.5796 7.62524 10.5197 7.65076 10.4644C7.67628 10.4091 7.71031 10.3602 7.75284 10.3177L10.2922 7.79112C10.3539 7.72808 10.4225 7.68253 10.498 7.65446C10.5734 7.62647 10.6484 7.61248 10.723 7.61248C10.8042 7.61248 10.8821 7.62736 10.9566 7.65714C11.0311 7.68691 11.0989 7.73157 11.1599 7.79112L11.7213 8.36534C11.7774 8.4271 11.8212 8.49571 11.8526 8.57117C11.8842 8.64662 11.9 8.72161 11.9 8.79613C11.9 8.87065 11.886 8.94687 11.858 9.0248C11.8299 9.10264 11.7844 9.17205 11.7213 9.23305L9.19183 11.7625C9.15125 11.8031 9.10332 11.8362 9.04802 11.8617C8.99273 11.8872 8.93288 11.9 8.86848 11.9H8.07185C7.94169 11.9 7.83259 11.856 7.74454 11.7679C7.6565 11.6799 7.61248 11.5708 7.61248 11.4406ZM10.7133 9.38617L11.2875 8.79919L10.7133 8.22498L10.139 8.81195L10.7133 9.38617ZM5.3156 6.08123H8.68435C8.81451 6.08123 8.92361 6.12499 9.01165 6.21253C9.0997 6.30007 9.14372 6.40853 9.14372 6.53792C9.14372 6.66731 9.0997 6.77667 9.01165 6.86599C8.92361 6.95531 8.81451 6.99998 8.68435 6.99998H5.3156C5.18544 6.99998 5.07634 6.95621 4.9883 6.86867C4.90025 6.78113 4.85623 6.67267 4.85623 6.54328C4.85623 6.41389 4.90025 6.30453 4.9883 6.21521C5.07634 6.12589 5.18544 6.08123 5.3156 6.08123ZM5.3156 4.54998H8.68435C8.81451 4.54998 8.92361 4.59374 9.01165 4.68128C9.0997 4.76882 9.14372 4.87728 9.14372 5.00667C9.14372 5.13606 9.0997 5.24542 9.01165 5.33474C8.92361 5.42406 8.81451 5.46873 8.68435 5.46873H5.3156C5.18544 5.46873 5.07634 5.42496 4.9883 5.33742C4.90025 5.24988 4.85623 5.14142 4.85623 5.01203C4.85623 4.88264 4.90025 4.77328 4.9883 4.68396C5.07634 4.59464 5.18544 4.54998 5.3156 4.54998Z" fill="#2CACFC"/>
</svg>
