<svg width="16" height="16" viewBox="0 0 16 16" fill="none" xmlns="http://www.w3.org/2000/svg">
<path d="M5.6001 11.296V4.70398C5.6001 4.52353 5.66082 4.37775 5.78226 4.26664C5.90371 4.15553 6.04538 4.09998 6.20726 4.09998C6.25782 4.09998 6.31093 4.10831 6.3666 4.12498C6.42226 4.14164 6.4761 4.16592 6.5281 4.19781L11.6168 7.49998C11.7057 7.55909 11.7751 7.63303 11.8251 7.72181C11.8751 7.81048 11.9001 7.90409 11.9001 8.00264C11.9001 8.1012 11.8751 8.19486 11.8251 8.28364C11.7751 8.37231 11.7057 8.44442 11.6168 8.49998L6.52793 11.8041C6.47593 11.8361 6.42126 11.8601 6.36393 11.876C6.30671 11.892 6.2521 11.9 6.2001 11.9C6.0401 11.9 5.9001 11.8444 5.7801 11.7333C5.6601 11.6222 5.6001 11.4764 5.6001 11.296Z" fill="#868795"/>
</svg>
