<svg width="16" height="16" viewBox="0 0 16 16" fill="none" xmlns="http://www.w3.org/2000/svg">
<path d="M8.00476 14.4C7.12388 14.4 6.29454 14.2333 5.51676 13.9C4.73899 13.5666 4.05843 13.1083 3.4751 12.525C2.89176 11.9416 2.43343 11.2613 2.1001 10.484C1.76676 9.70664 1.6001 8.87609 1.6001 7.99231C1.6001 7.10853 1.76676 6.28053 2.1001 5.50831C2.43343 4.73609 2.89176 4.05831 3.4751 3.47498C4.05843 2.89164 4.73876 2.43331 5.5161 2.09998C6.29343 1.76664 7.12399 1.59998 8.00776 1.59998C8.89154 1.59998 9.71954 1.76664 10.4918 2.09998C11.264 2.43331 11.9418 2.89164 12.5251 3.47498C13.1084 4.05831 13.5668 4.73731 13.9001 5.51198C14.2334 6.28675 14.4001 7.11453 14.4001 7.99531C14.4001 8.8762 14.2334 9.70553 13.9001 10.4833C13.5668 11.2611 13.1084 11.9416 12.5251 12.525C11.9418 13.1083 11.2628 13.5666 10.4881 13.9C9.71332 14.2333 8.88554 14.4 8.00476 14.4ZM8.00843 13.2C8.70288 13.2 9.36676 13.0666 10.0001 12.8C10.6334 12.5333 11.1945 12.1555 11.6834 11.6666L8.0001 7.99998V2.79998C6.55565 2.79998 5.32788 3.30553 4.31676 4.31664C3.30565 5.32775 2.8001 6.55553 2.8001 7.99998C2.8001 9.44442 3.30465 10.6722 4.31376 11.6833C5.32288 12.6944 6.55443 13.2 8.00843 13.2Z" fill="#E1C41E"/>
</svg>
