<svg width="1em" height="1em" viewBox="0 0 14 14" fill="none" xmlns="http://www.w3.org/2000/svg">
<path d="M5.60041 9.09998C4.6279 9.09998 3.80136 8.7597 3.12081 8.07914C2.44025 7.39859 2.09998 6.5722 2.09998 5.59998C2.09998 4.62775 2.44025 3.80136 3.12081 3.12081C3.80136 2.44025 4.62775 2.09998 5.59998 2.09998C6.5722 2.09998 7.39859 2.44025 8.07914 3.12081C8.7597 3.80136 9.09998 4.6279 9.09998 5.60041C9.09998 5.99309 9.03921 6.36341 8.91768 6.71137C8.79616 7.05933 8.62845 7.37914 8.41456 7.67081L11.5354 10.7916C11.6423 10.8986 11.6958 11.0201 11.6958 11.1562C11.6958 11.2923 11.6423 11.4139 11.5354 11.5208C11.4284 11.6278 11.3045 11.6812 11.1635 11.6812C11.0225 11.6812 10.8986 11.6278 10.7916 11.5208L7.67081 8.41456C7.37914 8.62845 7.05933 8.79616 6.71137 8.91768C6.36341 9.03921 5.99309 9.09998 5.60041 9.09998ZM5.59998 8.04998C6.28053 8.04998 6.859 7.81178 7.33539 7.33539C7.81178 6.859 8.04998 6.28053 8.04998 5.59998C8.04998 4.91942 7.81178 4.34095 7.33539 3.86456C6.859 3.38817 6.28053 3.14998 5.59998 3.14998C4.91942 3.14998 4.34095 3.38817 3.86456 3.86456C3.38817 4.34095 3.14998 4.91942 3.14998 5.59998C3.14998 6.28053 3.38817 6.859 3.86456 7.33539C4.34095 7.81178 4.91942 8.04998 5.59998 8.04998Z" fill="#484855"/>
</svg>
