<svg width="16" height="16" viewBox="0 0 16 16" fill="none" xmlns="http://www.w3.org/2000/svg">
<path d="M7.99999 6.00005C6.43332 6.00005 5.08593 6.52227 3.95782 7.56672C2.82971 8.61116 2.18821 9.89449 2.03332 11.4167C2.0111 11.5834 1.94032 11.7223 1.82099 11.8334C1.70176 11.9445 1.5626 12 1.40349 12C1.23449 12 1.08887 11.9427 0.966652 11.828C0.844429 11.7133 0.794429 11.5739 0.816652 11.41C0.894429 10.4923 1.1346 9.63027 1.53715 8.82405C1.93971 8.01783 2.46193 7.31783 3.10382 6.72405C3.74571 6.13027 4.48732 5.66116 5.32865 5.31672C6.16987 4.97227 7.06032 4.80005 7.99999 4.80005C8.93954 4.80005 9.82993 4.97199 10.6712 5.31588C11.5124 5.65977 12.2553 6.12922 12.8998 6.72422C13.5444 7.31922 14.0667 8.01949 14.4667 8.82505C14.8667 9.6306 15.1055 10.4923 15.1833 11.41C15.2055 11.5739 15.1555 11.7133 15.0333 11.828C14.9111 11.9427 14.7655 12 14.5965 12C14.4374 12 14.2982 11.9445 14.179 11.8334C14.0597 11.7223 13.9889 11.5834 13.9667 11.4167C13.8118 9.89449 13.1703 8.61116 12.0422 7.56672C10.914 6.52227 9.56665 6.00005 7.99999 6.00005ZM7.99999 8.40005C7.09999 8.40005 6.3111 8.69449 5.63332 9.28338C4.95554 9.87227 4.55554 10.6 4.43332 11.4667C4.4111 11.6223 4.33893 11.75 4.21682 11.85C4.09471 11.95 3.95549 12 3.79915 12C3.63304 12 3.49165 11.9465 3.37499 11.8395C3.25832 11.7327 3.2111 11.6028 3.23332 11.45C3.36665 10.2389 3.88332 9.22783 4.78332 8.41672C5.68332 7.6056 6.75554 7.20005 7.99999 7.20005C9.24443 7.20005 10.3167 7.6056 11.2167 8.41672C12.1167 9.22783 12.6333 10.2389 12.7667 11.45C12.7889 11.6028 12.7426 11.7327 12.6278 11.8395C12.5129 11.9465 12.3715 12 12.2037 12C12.0457 12 11.9055 11.95 11.7833 11.85C11.6611 11.75 11.5889 11.6223 11.5667 11.4667C11.4444 10.6 11.0444 9.87227 10.3667 9.28338C9.68887 8.69449 8.89999 8.40005 7.99999 8.40005Z" fill="#868795"/>
</svg>
