<svg width="16" height="16" viewBox="0 0 16 16" fill="none" xmlns="http://www.w3.org/2000/svg">
<path d="M4.22852 12.8C3.94567 12.8 3.70352 12.6992 3.50209 12.4978C3.30067 12.2964 3.19995 12.0542 3.19995 11.7714V4.22852C3.19995 3.94567 3.30067 3.70352 3.50209 3.50209C3.70352 3.30067 3.94567 3.19995 4.22852 3.19995H7.48567C7.63138 3.19995 7.75352 3.24895 7.85209 3.34695C7.95067 3.44495 7.99995 3.56638 7.99995 3.71124C7.99995 3.85609 7.95067 3.97852 7.85209 4.07852C7.75352 4.17852 7.63138 4.22852 7.48567 4.22852H4.22852V11.7714H11.7714V8.51424C11.7714 8.36852 11.8204 8.24638 11.9184 8.14781C12.0164 8.04924 12.1378 7.99995 12.2827 7.99995C12.4275 7.99995 12.55 8.04924 12.65 8.14781C12.75 8.24638 12.8 8.36852 12.8 8.51424V11.7714C12.8 12.0542 12.6992 12.2964 12.4978 12.4978C12.2964 12.6992 12.0542 12.8 11.7714 12.8H4.22852ZM11.7714 4.95709L7.02852 9.69995C6.92376 9.80471 6.80471 9.85471 6.67138 9.84995C6.53805 9.84519 6.419 9.79043 6.31424 9.68567C6.20948 9.5809 6.15709 9.45948 6.15709 9.32138C6.15709 9.18328 6.20948 9.06186 6.31424 8.95709L11.0428 4.22852H9.88567C9.73995 4.22852 9.61781 4.17952 9.51924 4.08152C9.42067 3.98352 9.37138 3.86209 9.37138 3.71724C9.37138 3.57238 9.42067 3.44995 9.51924 3.34995C9.61781 3.24995 9.73995 3.19995 9.88567 3.19995H12.2857C12.4314 3.19995 12.5535 3.24924 12.6521 3.34781C12.7507 3.44638 12.8 3.56852 12.8 3.71424V6.11424C12.8 6.25995 12.751 6.38209 12.653 6.48067C12.555 6.57924 12.4335 6.62852 12.2887 6.62852C12.1438 6.62852 12.0214 6.57924 11.9214 6.48067C11.8214 6.38209 11.7714 6.25995 11.7714 6.11424V4.95709Z" fill="#2CACFC"/>
</svg>
